<svg width="93" height="55" viewBox="0 0 93 55" fill="none" xmlns="http://www.w3.org/2000/svg">
    <path d="M6.55859 16.9824V26H1.28516V0.40625H11.2695C13.1914 0.40625 14.8789 0.757812 16.332 1.46094C17.7969 2.16406 18.9219 3.16602 19.707 4.4668C20.4922 5.75586 20.8848 7.22656 20.8848 8.87891C20.8848 11.3867 20.0234 13.3672 18.3008 14.8203C16.5898 16.2617 14.2168 16.9824 11.1816 16.9824H6.55859ZM6.55859 12.7109H11.2695C12.6641 12.7109 13.7246 12.3828 14.4512 11.7266C15.1895 11.0703 15.5586 10.1328 15.5586 8.91406C15.5586 7.66016 15.1895 6.64648 14.4512 5.87305C13.7129 5.09961 12.6934 4.70117 11.3926 4.67773H6.55859V12.7109ZM35.8438 20.7266H26.5977L24.8398 26H19.2324L28.7598 0.40625H33.6465L43.2266 26H37.6191L35.8438 20.7266ZM28.0215 16.4551H34.4199L31.2031 6.875L28.0215 16.4551ZM65.4805 22.7656C64.5312 23.9023 63.1895 24.7871 61.4551 25.4199C59.7207 26.041 57.7988 26.3516 55.6895 26.3516C53.4746 26.3516 51.5293 25.8711 49.8535 24.9102C48.1895 23.9375 46.9004 22.5312 45.9863 20.6914C45.084 18.8516 44.6211 16.6895 44.5977 14.2051V12.4648C44.5977 9.91016 45.0254 7.70117 45.8809 5.83789C46.748 3.96289 47.9902 2.5332 49.6074 1.54883C51.2363 0.552734 53.1406 0.0546875 55.3203 0.0546875C58.3555 0.0546875 60.7285 0.78125 62.4395 2.23438C64.1504 3.67578 65.1641 5.7793 65.4805 8.54492H60.3477C60.1133 7.08008 59.5918 6.00781 58.7832 5.32812C57.9863 4.64844 56.8848 4.30859 55.4785 4.30859C53.6855 4.30859 52.3203 4.98242 51.3828 6.33008C50.4453 7.67773 49.9707 9.68164 49.959 12.3418V13.9766C49.959 16.6602 50.4688 18.6875 51.4883 20.0586C52.5078 21.4297 54.002 22.1152 55.9707 22.1152C57.9512 22.1152 59.3633 21.6934 60.207 20.8496V16.4375H55.4082V12.5527H65.4805V22.7656ZM85.168 14.9082H75.043V21.7637H86.9258V26H69.7695V0.40625H86.8906V4.67773H75.043V10.7773H85.168V14.9082ZM0.980469 54V36.9375H6.55859C8.41016 36.9375 9.80078 37.3203 10.7305 38.0859C11.668 38.8516 12.1367 39.9844 12.1367 41.4844C12.1367 42.2812 11.9102 42.9883 11.457 43.6055C11.0039 44.2148 10.3867 44.6875 9.60547 45.0234C10.5273 45.2812 11.2539 45.7734 11.7852 46.5C12.3242 47.2188 12.5938 48.0781 12.5938 49.0781C12.5938 50.6094 12.0977 51.8125 11.1055 52.6875C10.1133 53.5625 8.71094 54 6.89844 54H0.980469ZM3.23047 46.0195V52.1602H6.94531C7.99219 52.1602 8.81641 51.8906 9.41797 51.3516C10.0273 50.8047 10.332 50.0547 10.332 49.1016C10.332 47.0469 9.21484 46.0195 6.98047 46.0195H3.23047ZM3.23047 44.2148H6.62891C7.61328 44.2148 8.39844 43.9688 8.98438 43.4766C9.57812 42.9844 9.875 42.3164 9.875 41.4727C9.875 40.5352 9.60156 39.8555 9.05469 39.4336C8.50781 39.0039 7.67578 38.7891 6.55859 38.7891H3.23047V44.2148ZM27.9453 36.9375V48.5391C27.9375 50.1484 27.4297 51.4648 26.4219 52.4883C25.4219 53.5117 24.0625 54.0859 22.3438 54.2109L21.7461 54.2344C19.8789 54.2344 18.3906 53.7305 17.2812 52.7227C16.1719 51.7148 15.6094 50.3281 15.5938 48.5625V36.9375H17.8203V48.4922C17.8203 49.7266 18.1602 50.6875 18.8398 51.375C19.5195 52.0547 20.4883 52.3945 21.7461 52.3945C23.0195 52.3945 23.9922 52.0547 24.6641 51.375C25.3438 50.6953 25.6836 49.7383 25.6836 48.5039V36.9375H27.9453ZM33.9102 54H31.6602V36.9375H33.9102V54ZM40.2969 52.1602H48.3828V54H38.0352V36.9375H40.2969V52.1602ZM50.9492 54V36.9375H55.7656C57.25 36.9375 58.5625 37.2656 59.7031 37.9219C60.8438 38.5781 61.7227 39.5117 62.3398 40.7227C62.9648 41.9336 63.2812 43.3242 63.2891 44.8945V45.9844C63.2891 47.5938 62.9766 49.0039 62.3516 50.2148C61.7344 51.4258 60.8477 52.3555 59.6914 53.0039C58.543 53.6523 57.2031 53.9844 55.6719 54H50.9492ZM53.1992 38.7891V52.1602H55.5664C57.3008 52.1602 58.6484 51.6211 59.6094 50.543C60.5781 49.4648 61.0625 47.9297 61.0625 45.9375V44.9414C61.0625 43.0039 60.6055 41.5 59.6914 40.4297C58.7852 39.3516 57.4961 38.8047 55.8242 38.7891H53.1992ZM76.3438 46.1133H68.9492V52.1602H77.5391V54H66.6992V36.9375H77.4219V38.7891H68.9492V44.2734H76.3438V46.1133ZM86.5977 47.0977H82.5898V54H80.3281V36.9375H85.9766C87.8984 36.9375 89.375 37.375 90.4062 38.25C91.4453 39.125 91.9648 40.3984 91.9648 42.0703C91.9648 43.1328 91.6758 44.0586 91.0977 44.8477C90.5273 45.6367 89.7305 46.2266 88.707 46.6172L92.7148 53.8594V54H90.3008L86.5977 47.0977ZM82.5898 45.2578H86.0469C87.1641 45.2578 88.0508 44.9688 88.707 44.3906C89.3711 43.8125 89.7031 43.0391 89.7031 42.0703C89.7031 41.0156 89.3867 40.207 88.7539 39.6445C88.1289 39.082 87.2227 38.7969 86.0352 38.7891H82.5898V45.2578Z" fill="black"/>
</svg>

